# xmcd CD database file
#
# Track frame offsets:
#	150
#	25548
#	47421
#	70944
#	93192
#	113415
#	137388
#	160911
#	188109
#	213207
#
# Disc length: 3168 seconds
#
# Revision: 2
# Processed by: cddbd v1.5.2PL0 Copyright (c) Steve Scherf et al.
# Submitted via: CDex 1.70beta2
#
DISCID=700c5e0a
DTITLE=中島美嘉 - TEARS [Disc.1]
DYEAR=2014
DGENRE=J-Pop
TTITLE0=雪の華
TTITLE1=ORION
TTITLE2=Dear
TTITLE3=桜色舞うころ
TTITLE4=一番綺麗な私を
TTITLE5=見えない星
TTITLE6=ALWAYS
TTITLE7=接吻
TTITLE8=愛してる
TTITLE9=素直なまま
EXTD=Powerd by gracenote music web API YEAR: 2014
EXTT0=
EXTT1=
EXTT2=
EXTT3=
EXTT4=
EXTT5=
EXTT6=
EXTT7=
EXTT8=
EXTT9=
PLAYORDER=
